<?xml version="1.0" standalone="no"?>
<!DOCTYPE svg PUBLIC "-//W3C//DTD SVG 20010904//EN"
 "http://www.w3.org/TR/2001/REC-SVG-20010904/DTD/svg10.dtd">
<svg version="1.0" xmlns="http://www.w3.org/2000/svg"
 viewBox="0 0 2600.000000 2600.000000"
 preserveAspectRatio="xMidYMid meet">
<metadata>
Created by potrace 1.15, written by Peter Selinger 2001-2017
</metadata>
<g transform="translate(0.000000,2600.000000) scale(0.100000,-0.100000)"
fill="#000000" stroke="none">
<path d="M7644 20985 c-38 -7 -97 -20 -129 -30 -257 -74 -491 -277 -611 -528
-51 -109 -2471 -7453 -2489 -7556 -56 -315 42 -632 264 -864 143 -149 252
-209 576 -317 195 -65 215 -74 215 -94 0 -13 -40 -301 -90 -642 -104 -719
-107 -747 -90 -873 36 -281 171 -516 392 -687 158 -123 292 -168 645 -220
l261 -39 4 -470 4 -470 27 -100 c50 -184 136 -336 266 -466 167 -166 368 -262
609 -289 69 -8 1857 -10 6307 -8 5756 3 6215 5 6275 20 163 42 262 86 376 166
221 156 373 399 413 663 9 55 11 1078 9 4044 l-3 3970 -28 90 c-70 226 -185
395 -360 529 -120 92 -309 173 -442 191 -27 3 -88 24 -135 46 -124 57 -11831
3916 -11937 3934 -102 18 -232 18 -329 0z m3969 -2067 c2073 -684 3763 -1244
3755 -1246 -7 -1 -1786 252 -3953 563 -3700 531 -3947 566 -4058 563 -64 -2
-117 -1 -117 3 0 13 413 1256 426 1280 13 26 53 60 84 72 8 3 33 6 55 6 27 1
1209 -385 3808 -1241z m-965 -1420 l3233 -463 -3203 -5 c-2980 -5 -3208 -7
-3273 -23 -106 -26 -163 -46 -247 -89 -49 -24 -78 -34 -78 -26 0 40 140 969
148 984 28 52 111 98 162 89 14 -2 1480 -212 3258 -467z m9302 -1330 c25 -13
55 -38 67 -57 l23 -34 0 -3897 0 -3897 -23 -34 c-12 -18 -40 -44 -62 -56 l-40
-23 -6176 0 -6176 0 -43 23 c-30 16 -51 37 -67 67 l-23 43 0 3874 c0 3267 2
3879 14 3906 17 41 65 85 102 97 16 4 2749 9 6194 9 l6166 1 44 -22z m-14182
-2513 c-94 -655 -171 -1191 -172 -1192 -5 -6 -256 80 -284 97 -46 28 -72 76
-72 133 0 37 84 304 347 1102 192 579 349 1053 350 1051 1 -1 -75 -537 -169
-1191z m820 -3670 c-9 -8 -349 49 -378 63 -37 18 -76 68 -87 111 -4 14 96 739
228 1659 l234 1634 3 -1733 c1 -953 1 -1733 0 -1734z"/>
<path d="M12301 14080 c26 -190 29 -437 29 -2042 0 -972 -4 -1742 -10 -1808
-5 -63 -12 -150 -16 -192 l-7 -78 538 0 537 0 -6 73 c-22 234 -27 351 -33 815
l-6 512 472 0 c587 0 723 13 970 96 477 159 772 505 869 1019 25 132 24 474
-2 610 -111 596 -509 935 -1206 1025 -83 11 -502 17 -1606 23 l-530 2 7 -55z
m1944 -825 c207 -44 335 -172 371 -374 49 -274 -46 -506 -249 -606 -118 -58
-177 -64 -634 -65 l-403 0 0 530 0 530 423 0 c332 0 437 -3 492 -15z"/>
</g>
</svg>
